<?xml version="1.0" standalone="no"?>
<!DOCTYPE svg PUBLIC "-//W3C//DTD SVG 20010904//EN"
 "http://www.w3.org/TR/2001/REC-SVG-20010904/DTD/svg10.dtd">
<svg version="1.0" xmlns="http://www.w3.org/2000/svg"
 width="1080.000000pt" height="1080.000000pt" viewBox="0 0 1080.000000 1080.000000"
 preserveAspectRatio="xMidYMid meet">

<g transform="translate(0.000000,1080.000000) scale(0.100000,-0.100000)"
fill="#000000" stroke="none">
<path d="M5182 8738 c-32 -32 2 -79 43 -60 39 18 27 72 -15 72 -9 0 -21 -5
-28 -12z"/>
<path d="M4806 8608 c-14 -8 -16 -18 -10 -54 5 -37 3 -45 -12 -50 -52 -16 -63
-24 -58 -39 4 -10 19 -15 44 -15 46 0 41 11 74 -184 27 -158 38 -186 88 -212
52 -27 168 -1 168 37 0 27 -13 30 -56 13 -46 -18 -84 -8 -108 28 -17 26 -59
265 -54 306 3 27 19 35 91 47 29 5 37 10 37 27 0 19 -4 20 -74 13 l-75 -7 -6
46 c-8 48 -21 60 -49 44z"/>
<path d="M5384 8557 c-3 -10 110 -340 161 -469 4 -11 18 -18 35 -18 15 0 34 8
42 18 18 21 228 417 228 430 0 12 -21 20 -37 15 -7 -3 -53 -82 -103 -176 -95
-180 -116 -214 -125 -205 -3 3 -37 92 -75 199 -64 175 -86 219 -112 219 -5 0
-11 -6 -14 -13z"/>
<path d="M5196 8542 c-10 -17 17 -442 29 -459 8 -10 19 -14 30 -9 16 6 17 18
10 149 -16 307 -18 322 -42 325 -11 2 -24 -1 -27 -6z"/>
<path d="M6013 8445 c-121 -61 -169 -230 -99 -349 33 -56 106 -103 181 -117
80 -15 165 7 165 42 0 22 -18 24 -74 8 -48 -13 -114 1 -169 37 -45 29 -76 91
-77 147 0 32 3 38 18 34 217 -57 362 -89 375 -84 14 5 17 20 17 74 -1 135 -82
221 -217 230 -59 4 -75 1 -120 -22z m182 -44 c46 -21 79 -54 94 -94 11 -29 15
-97 6 -97 -3 0 -80 19 -170 41 -111 28 -165 46 -165 55 0 21 61 85 95 100 42
19 93 17 140 -5z"/>
<path d="M4374 8389 c-54 -21 -134 -82 -134 -104 0 -7 6 -18 13 -24 10 -8 22
-3 50 23 68 62 152 89 207 66 35 -14 66 -54 71 -90 4 -22 -3 -27 -82 -55 -47
-17 -101 -40 -120 -51 -41 -24 -79 -78 -79 -111 0 -41 28 -92 62 -113 40 -24
123 -27 176 -5 43 19 112 82 112 105 0 8 9 0 20 -18 17 -28 23 -31 40 -22 11
6 20 14 20 18 0 21 -102 307 -120 336 -40 66 -136 84 -236 45z m244 -232 c18
-49 15 -80 -10 -117 -37 -53 -71 -73 -135 -78 -49 -3 -62 0 -80 17 -46 43 -40
103 14 138 22 15 175 72 193 73 4 0 11 -15 18 -33z"/>
<path d="M6894 8271 c-52 -13 -135 -64 -165 -101 -58 -69 -83 -137 -84 -220 0
-65 4 -84 33 -142 37 -76 78 -115 165 -159 50 -26 74 -32 132 -33 68 -1 70 0
70 24 0 24 -3 25 -60 27 -125 5 -236 91 -271 210 -19 67 -14 117 22 190 96
199 365 203 490 7 35 -55 57 -67 68 -38 9 24 -39 108 -86 148 -66 57 -135 86
-214 91 -38 2 -83 1 -100 -4z"/>
<path d="M3865 8162 c-28 -15 -62 -45 -80 -70 -28 -41 -30 -50 -30 -131 0 -81
2 -90 34 -139 69 -108 191 -142 311 -86 66 31 96 56 122 108 18 36 19 40 3 55
-16 15 -18 15 -28 -3 -22 -37 -81 -97 -107 -111 -72 -37 -167 -26 -217 27
l-28 30 23 18 c12 10 85 53 161 95 77 41 145 82 151 90 19 23 -23 81 -84 115
-71 41 -159 42 -231 2z m193 -39 c43 -21 67 -53 49 -70 -26 -26 -282 -162
-290 -154 -15 15 -20 88 -8 123 23 70 121 134 186 122 17 -4 45 -13 63 -21z"/>
<path d="M3526 7940 c-23 -28 -46 -86 -46 -119 0 -10 -7 -8 -23 7 -43 41 -81
18 -49 -30 52 -77 266 -338 277 -338 19 0 38 27 29 42 -4 7 -41 54 -81 106
-90 115 -103 139 -103 194 0 39 10 62 51 119 15 20 5 49 -15 49 -8 0 -26 -14
-40 -30z"/>
<path d="M7290 7759 c-100 -45 -154 -126 -153 -231 0 -57 5 -76 29 -115 103
-166 312 -174 421 -16 31 46 38 64 41 119 4 54 0 72 -22 119 -60 121 -200 177
-316 124z m181 -55 c40 -20 87 -79 99 -124 37 -139 -129 -282 -263 -227 -46
20 -105 89 -113 134 -18 97 60 210 161 233 35 8 80 2 116 -16z"/>
<path d="M3063 7740 c-71 -36 -121 -88 -161 -170 -23 -47 -27 -68 -27 -140 0
-73 4 -92 28 -138 35 -67 94 -124 163 -158 48 -23 63 -26 141 -22 67 2 99 9
136 27 101 49 188 171 191 265 1 45 -1 51 -19 51 -16 0 -23 -12 -36 -62 -29
-113 -99 -185 -212 -218 -172 -50 -351 103 -334 286 10 113 88 211 196 247 42
14 56 23 56 38 0 32 -52 29 -122 -6z"/>
<path d="M7645 7262 c-129 -91 -180 -133 -180 -147 0 -38 36 -25 154 56 101
69 127 82 168 86 89 8 172 -63 180 -154 6 -69 -17 -98 -150 -192 -134 -94
-145 -105 -127 -126 7 -8 17 -15 22 -15 5 0 68 42 141 94 146 104 177 141 177
217 0 87 -76 186 -162 210 -55 16 -56 17 -29 35 25 18 26 57 1 61 -8 2 -96
-55 -195 -125z"/>
<path d="M8136 6891 c-4 -5 -2 -21 4 -36 5 -14 10 -31 10 -36 0 -5 -70 -43
-155 -84 -167 -81 -185 -97 -185 -170 0 -64 59 -149 90 -130 15 9 12 21 -15
61 -52 77 -29 109 142 189 165 78 157 78 190 11 18 -37 33 -56 45 -56 24 0 23
31 -2 80 -11 22 -20 44 -20 49 0 6 18 22 40 36 42 27 45 32 30 55 -9 15 -13
14 -96 -17 -6 -2 -17 10 -24 26 -12 30 -42 42 -54 22z"/>
<path d="M2568 6794 c-23 -23 0 -58 142 -206 l150 -157 -42 -5 c-24 -3 -126
-9 -228 -13 -184 -8 -185 -8 -188 -32 l-4 -23 259 7 258 7 38 -40 c55 -56 60
-102 17 -161 -27 -37 -30 -45 -18 -57 19 -19 52 4 78 56 25 49 25 100 1 148
-23 45 -453 487 -463 476z"/>
<path d="M2992 6738 c-28 -28 -3 -72 39 -66 30 4 47 33 33 56 -14 21 -55 27
-72 10z"/>
<path d="M8090 6439 c-98 -44 -145 -117 -144 -224 0 -55 6 -81 27 -121 25 -49
77 -104 98 -104 25 0 18 33 -15 72 -83 97 -81 220 4 292 57 48 50 60 145 -257
14 -48 32 -90 40 -93 8 -3 38 7 67 23 130 70 157 244 54 361 -63 71 -182 94
-276 51z m213 -65 c94 -62 102 -206 15 -279 -54 -46 -55 -45 -112 152 -40 135
-42 149 -23 157 23 10 82 -5 120 -30z"/>
<path d="M2396 6167 c-79 -46 -113 -192 -67 -287 23 -48 28 -48 -122 -19 -100
19 -111 20 -125 5 -14 -14 -14 -18 -2 -30 9 -8 148 -40 329 -75 317 -61 341
-62 341 -25 0 19 -8 22 -126 44 -198 38 -240 62 -264 152 -17 59 12 144 59
175 45 30 96 30 252 -2 68 -14 129 -23 136 -21 15 6 18 42 4 50 -4 3 -66 17
-137 31 -162 31 -226 32 -278 2z"/>
<path d="M8261 5869 c-139 -12 -217 -23 -222 -31 -4 -6 -3 -21 3 -31 7 -14 17
-18 37 -14 15 3 84 9 152 12 117 6 126 5 168 -17 57 -29 85 -82 85 -155 0 -62
-22 -99 -75 -125 -22 -11 -86 -22 -178 -30 -116 -10 -146 -16 -155 -30 -23
-37 3 -42 156 -29 79 7 159 17 178 23 90 27 137 103 127 202 -6 58 -33 120
-66 150 -24 22 -19 36 14 36 13 0 27 4 30 10 8 13 -13 50 -28 49 -7 -1 -108
-10 -226 -20z"/>
<path d="M2385 5591 c-84 -39 -135 -120 -135 -216 0 -66 20 -119 61 -161 l30
-31 -36 -7 c-37 -7 -55 -30 -38 -47 7 -7 122 -7 329 -2 l319 8 0 25 0 25 -129
5 c-117 5 -127 6 -111 20 31 26 65 111 65 165 0 93 -62 186 -147 222 -48 19
-160 16 -208 -6z m216 -68 c103 -60 115 -211 24 -292 -33 -29 -89 -51 -130
-51 -70 0 -156 56 -181 117 -36 84 2 189 81 231 65 34 144 32 206 -5z"/>
<path d="M8500 5284 c-6 -14 -10 -32 -10 -40 0 -17 -54 -18 -219 -3 -133 12
-175 3 -207 -46 -35 -53 -27 -165 11 -165 11 0 15 12 15 45 0 106 29 121 212
105 194 -16 178 -8 178 -90 0 -106 36 -111 47 -6 3 31 11 60 17 63 6 4 29 7
51 8 34 0 40 4 43 23 4 24 -2 27 -60 37 -36 6 -38 8 -38 44 0 48 -26 64 -40
25z"/>
<path d="M2583 4964 c-79 -18 -161 -43 -183 -54 -85 -43 -104 -163 -45 -280
33 -67 53 -90 75 -90 28 0 31 27 6 57 -98 118 -78 255 41 279 l30 6 23 -94
c41 -167 73 -208 164 -208 74 0 126 59 126 143 0 66 -27 132 -69 170 l-37 34
28 16 c25 14 27 20 18 37 -13 25 -4 25 -177 -16z m129 -91 c81 -75 77 -216 -6
-237 -33 -8 -71 8 -91 38 -18 27 -55 157 -55 194 0 50 101 53 152 5z"/>
<path d="M8060 4654 c-71 -33 -124 -85 -163 -159 -26 -51 -31 -74 -35 -150 -4
-80 -2 -93 16 -115 19 -22 22 -23 36 -10 13 12 14 23 6 50 -37 130 49 292 179
335 70 23 150 16 218 -19 120 -60 170 -192 127 -336 -12 -40 -29 -66 -70 -108
-54 -53 -65 -84 -33 -90 23 -4 101 70 131 124 79 148 51 335 -64 426 -101 80
-243 101 -348 52z"/>
<path d="M2430 4385 c-25 -30 43 -104 115 -126 19 -6 18 -7 -5 -17 -14 -5 -32
-17 -40 -26 -11 -15 -11 -19 2 -33 14 -14 35 -7 221 66 113 45 211 89 218 97
10 12 9 18 -4 31 -15 16 -25 13 -137 -31 -66 -26 -138 -50 -159 -53 -58 -8
-106 12 -147 63 -40 48 -46 51 -64 29z"/>
<path d="M3030 4217 c-19 -7 -122 -66 -227 -131 -144 -88 -193 -123 -193 -137
0 -27 23 -33 57 -16 l29 15 -4 -62 c-12 -183 169 -317 328 -245 93 42 140 112
140 209 0 107 -46 181 -139 228 l-60 30 41 27 c49 32 115 43 158 25 64 -27
123 -121 138 -221 6 -45 11 -54 27 -54 18 0 20 6 19 60 -1 65 -37 152 -90 214
-54 64 -142 87 -224 58z m-60 -167 c43 -12 103 -71 125 -122 28 -69 16 -129
-38 -187 -95 -100 -233 -75 -299 53 -39 76 -19 172 48 222 53 41 103 51 164
34z"/>
<path d="M7742 4138 c-7 -7 -12 -17 -12 -23 0 -6 57 -44 126 -85 94 -56 133
-85 153 -114 26 -40 27 -47 19 -156 -2 -26 1 -35 14 -38 26 -5 40 42 36 116
-3 54 -2 62 12 56 37 -16 60 -16 66 1 4 9 1 23 -7 30 -15 15 -378 225 -389
225 -3 0 -11 -5 -18 -12z"/>
<path d="M7543 3799 c-51 -25 -108 -86 -134 -143 -22 -49 -25 -112 -5 -119 18
-7 36 12 36 38 0 35 50 124 84 150 17 13 52 29 78 36 39 11 52 10 92 -5 25
-10 46 -21 46 -24 0 -11 -30 -51 -137 -185 -62 -77 -100 -133 -97 -142 9 -23
104 -65 148 -65 92 0 175 51 218 134 62 118 -3 276 -137 332 -51 21 -142 18
-192 -7z m297 -189 c13 -50 2 -98 -36 -147 -28 -36 -92 -72 -131 -73 -38 0
-105 31 -99 46 3 8 51 70 108 140 l102 126 23 -26 c12 -15 27 -44 33 -66z"/>
<path d="M3207 3656 c-57 -21 -104 -62 -137 -119 -24 -42 -30 -64 -30 -115 0
-207 228 -323 392 -199 142 108 127 322 -27 413 -55 32 -142 41 -198 20z m150
-57 c57 -21 122 -108 123 -164 1 -104 -100 -205 -205 -205 -57 0 -91 17 -138
69 -62 69 -60 163 6 238 55 63 144 89 214 62z"/>
<path d="M7195 3443 c-68 -35 -125 -113 -125 -169 l0 -27 -23 22 c-27 24 -57
20 -57 -9 0 -29 203 -263 245 -283 77 -37 158 -14 232 66 70 75 95 147 53 147
-13 0 -25 -11 -34 -34 -37 -88 -141 -159 -201 -136 -35 13 -75 48 -75 66 0 6
36 45 81 84 44 40 87 86 95 101 31 61 9 146 -46 174 -37 19 -107 19 -145 -2z
m126 -62 c53 -53 32 -101 -82 -195 l-72 -59 -29 34 c-26 30 -28 40 -25 92 3
47 9 63 33 88 69 75 127 88 175 40z"/>
<path d="M3647 3296 c-8 -20 13 -36 48 -36 66 -1 160 -70 186 -137 18 -48 2
-153 -23 -153 -6 0 -80 50 -166 111 -85 60 -160 108 -168 105 -7 -3 -23 -24
-35 -47 -17 -34 -20 -55 -17 -114 4 -91 35 -141 111 -185 113 -65 255 -27 323
88 34 57 49 123 38 168 -13 53 -53 123 -87 148 -75 57 -197 87 -210 52z m49
-272 c132 -95 134 -97 117 -116 -43 -47 -134 -63 -191 -34 -31 16 -74 61 -91
93 -22 42 -8 153 19 153 6 0 72 -43 146 -96z"/>
<path d="M6735 3113 c-47 -24 -65 -44 -65 -70 0 -28 21 -30 45 -3 9 10 32 24
51 30 56 19 80 -3 167 -147 42 -70 77 -134 77 -141 0 -7 -22 -27 -50 -44 -31
-19 -50 -38 -50 -49 0 -27 25 -24 85 11 l52 30 27 -40 c45 -68 84 -43 50 31
l-18 40 29 23 c19 15 26 28 22 39 -8 20 -24 21 -56 3 -30 -17 -29 -18 -126
142 -37 62 -81 124 -97 137 -35 30 -96 33 -143 8z"/>
<path d="M4096 3033 c-52 -102 -256 -578 -252 -589 3 -8 15 -14 26 -14 17 0
28 16 53 73 18 39 44 96 58 126 l26 53 11 -29 c5 -17 25 -47 42 -67 88 -100
238 -113 331 -29 124 112 120 308 -9 393 -25 16 -60 33 -79 36 -37 7 -128 1
-155 -11 -16 -6 -17 -4 -4 26 7 19 11 40 9 47 -8 22 -42 13 -57 -15z m190 -98
c62 -18 118 -74 134 -133 25 -95 -48 -216 -144 -241 -83 -21 -185 32 -215 112
-16 42 -13 107 8 152 21 47 80 102 119 111 25 5 46 11 48 13 0 1 23 -6 50 -14z"/>
<path d="M6375 2938 c-54 -27 -93 -65 -117 -112 -16 -32 -19 -54 -16 -116 2
-64 8 -84 33 -126 79 -128 253 -151 372 -49 122 104 103 307 -37 393 -48 28
-62 32 -125 32 -51 -1 -81 -7 -110 -22z m212 -64 c67 -54 98 -152 74 -227 -25
-74 -131 -137 -206 -123 -70 13 -134 79 -156 160 -15 55 2 121 44 165 45 48
82 62 149 58 46 -3 65 -9 95 -33z"/>
<path d="M4662 2842 c-14 -9 -131 -432 -125 -449 7 -19 41 -16 51 5 5 9 33
103 61 207 29 105 54 198 57 207 6 19 -26 40 -44 30z"/>
<path d="M6033 2823 c-18 -7 -16 -34 12 -153 42 -180 29 -244 -59 -289 -46
-24 -62 -56 -32 -67 30 -12 118 54 136 101 6 17 8 16 14 -12 10 -44 32 -61 53
-41 14 14 10 36 -33 229 -26 118 -52 220 -57 227 -10 13 -14 13 -34 5z"/>
<path d="M4875 2475 c-97 -162 -173 -300 -170 -305 10 -16 41 -12 57 8 8 9 79
126 158 259 81 136 148 239 153 234 5 -5 46 -131 92 -280 45 -149 88 -278 95
-286 18 -22 50 -19 50 4 0 27 -187 630 -201 647 -6 8 -22 14 -35 14 -20 0 -48
-42 -199 -295z"/>
<path d="M5480 2735 c-7 -8 -10 -25 -6 -40 5 -20 13 -25 36 -25 23 0 31 5 36
25 7 29 -10 55 -36 55 -10 0 -23 -7 -30 -15z"/>
<path d="M4486 2254 c-9 -8 -16 -22 -16 -29 0 -13 26 -45 36 -45 19 0 44 24
44 43 0 43 -35 60 -64 31z"/>
</g>
</svg>
